<svg xmlns="http://www.w3.org/2000/svg" version="1.1" viewBox="95.34 95.62 308.95 308.69">
<path d="M0 0 C29.96927543 27.38664487 50.11145608 65.47221995 52.12426758 106.53515625 C52.71099631 127.05431325 50.79137257 146.56711729 44 166 C43.77973145 166.63067383 43.55946289 167.26134766 43.33251953 167.91113281 C38.04309007 182.6846591 30.77289251 196.70323428 21 209 C20.32582031 209.8765625 19.65164063 210.753125 18.95703125 211.65625 C-6.37993886 243.77743615 -42.90928701 264.04376327 -83.46923828 269.32128906 C-120.91857962 273.40986908 -159.15974813 264.93752387 -190 243 C-191.02738281 242.2884375 -192.05476563 241.576875 -193.11328125 240.84375 C-207.98726195 230.02630949 -221.16385823 216.54616182 -231 201 C-231.37914551 200.4225 -231.75829102 199.845 -232.14892578 199.25 C-253.96795547 165.96023827 -261.57597278 123.36001043 -253.5390625 84.40332031 C-248.98687649 64.10815767 -241.07658751 44.96915373 -229 28 C-227.91525391 26.44152344 -227.91525391 26.44152344 -226.80859375 24.8515625 C-212.59860035 5.37593703 -194.31817074 -9.90372007 -173 -21 C-172.36400879 -21.33628418 -171.72801758 -21.67256836 -171.07275391 -22.01904297 C-156.11679845 -29.82900843 -139.79283802 -35.04675449 -123 -37 C-121.78183594 -37.16435547 -121.78183594 -37.16435547 -120.5390625 -37.33203125 C-76.86829488 -42.37096598 -32.99119521 -29.08755338 0 0 Z M-170.625 54.28515625 C-187.07392683 73.08779465 -195.04281278 96.08226308 -194 121 C-192.35407669 142.72618772 -184.71898715 161.85741478 -170 178 C-169.32582031 178.76699219 -168.65164062 179.53398437 -167.95703125 180.32421875 C-151.06418633 198.48481939 -126.65296087 207.33638157 -102.25 208.3125 C-75.42412768 207.55495876 -51.87803655 196.87193829 -33.375 177.3125 C-17.06657261 158.40756091 -8.64028626 134.84319271 -10.21484375 109.765625 C-12.42126554 83.82381412 -24.42354249 61.55435332 -44 44.5625 C-82.90114757 13.74470777 -136.68599775 18.98641833 -170.625 54.28515625 Z " fill="#41B7D4" transform="translate(352,134)"/>
<path d="M0 0 C0 0.99 0 1.98 0 3 C-0.556875 3.08636719 -1.11375 3.17273438 -1.6875 3.26171875 C-10.02705499 4.79721114 -16.37741898 8.2885792 -21.6796875 14.99609375 C-26.42797812 22.20281886 -28.0836924 29.44256689 -27 38 C-26.35248747 40.45314748 -25.59211388 42.7680095 -24.65625 45.125 C-24 47 -24 47 -24 50 C-23.34 50 -22.68 50 -22 50 C-20.2734375 51.71484375 -20.2734375 51.71484375 -18.375 53.9375 C-17.74335938 54.66839844 -17.11171875 55.39929688 -16.4609375 56.15234375 C-15 58 -15 58 -15 59 C-30.84 59.495 -30.84 59.495 -47 60 C-47.33 60.99 -47.66 61.98 -48 63 C-50.79418145 64.06801154 -53.5136723 64.96849687 -56.375 65.8125 C-79.24044303 73.03281206 -97.72882201 88.39317142 -108.98046875 109.640625 C-120.44303616 132.43700058 -121.95165345 157.65858074 -114.24389648 181.99243164 C-111.48106641 190.0690818 -107.57782086 198.57031703 -102.1953125 205.234375 C-101.80085938 205.81703125 -101.40640625 206.3996875 -101 207 C-101.33 207.99 -101.66 208.98 -102 210 C-103.546875 209.2575 -103.546875 209.2575 -105.125 208.5 C-112.31700147 205.81259732 -121.23697864 205.70794252 -128.5 208.25 C-136.23779455 212.11889728 -142.57380483 216.77025993 -145.875 225 C-147.79194036 231.4458521 -147.23651814 238.3512122 -147 245 C-151.31442153 244.21381652 -153.42200648 242.87989358 -155.89453125 239.38671875 C-156.88989909 237.83464543 -157.8612679 236.26700822 -158.8125 234.6875 C-159.58799194 233.42401733 -159.58799194 233.42401733 -160.37915039 232.13500977 C-181.1008501 197.41121077 -187.74719097 154.92772456 -178.4140625 115.52636719 C-173.73046288 97.00157424 -166.08270503 79.57262143 -155 64 C-153.91525391 62.44152344 -153.91525391 62.44152344 -152.80859375 60.8515625 C-138.59860035 41.37593703 -120.31817074 26.09627993 -99 15 C-98.36400879 14.66371582 -97.72801758 14.32743164 -97.07275391 13.98095703 C-82.11679845 6.17099157 -65.79283802 0.95324551 -49 -1 C-47.78183594 -1.16435547 -47.78183594 -1.16435547 -46.5390625 -1.33203125 C-31.01685839 -3.1230548 -15.42509875 -2.08648679 0 0 Z " fill="#6AE2E5" transform="translate(278,98)"/>
<path d="M0 0 C4.25014654 4.25014654 3.14785462 12.69848505 3.18945312 18.42773438 C3.18880859 19.44158203 3.18816406 20.45542969 3.1875 21.5 C3.1884668 23.07491211 3.1884668 23.07491211 3.18945312 24.68164062 C3.13176827 33.25570809 2.39322541 41.54113142 1 50 C0.67 50 0.34 50 0 50 C0 33.5 0 17 0 0 Z " fill="#3E8C9F" transform="translate(401,228)"/>
<path d="M0 0 C0.66 0 1.32 0 2 0 C0.08321013 6.43595765 -2.45748861 12.18460049 -5.6875 18.0625 C-6.10322266 18.83271484 -6.51894531 19.60292969 -6.94726562 20.39648438 C-7.9584648 22.267784 -8.97831383 24.13440534 -10 26 C-10.33 25.01 -10.66 24.02 -11 23 C-10.67 22.34 -10.34 21.68 -10 21 C-10.66 20.67 -11.32 20.34 -12 20 C-10.68 20 -9.36 20 -8 20 C-7.91363281 19.04738281 -7.82726562 18.09476562 -7.73828125 17.11328125 C-7.59777344 15.85902344 -7.45726562 14.60476563 -7.3125 13.3125 C-7.12107422 11.45044922 -7.12107422 11.45044922 -6.92578125 9.55078125 C-5.83432971 5.36458104 -4.25511312 3.76300153 -1 1 C-0.67 0.67 -0.34 0.34 0 0 Z " fill="#45A6BC" transform="translate(392,304)"/>
<path d="M0 0 C0.33 0 0.66 0 1 0 C1.19393875 2.14526099 1.37998676 4.29123677 1.5625 6.4375 C1.66691406 7.63246094 1.77132813 8.82742188 1.87890625 10.05859375 C1.91886719 11.02925781 1.95882813 11.99992187 2 13 C1.67 13.33 1.34 13.66 1 14 C0.60006314 16.68862664 0.24865457 19.36352217 -0.0625 22.0625 C-0.15337891 22.82111328 -0.24425781 23.57972656 -0.33789062 24.36132812 C-0.5624374 26.2404301 -0.78170978 28.12016095 -1 30 C-1.99 30 -2.98 30 -4 30 C-5.64572543 25.93776633 -4.26004308 22.38986314 -3.125 18.375 C-1.48342455 12.25462701 -0.30545137 6.35338857 0 0 Z " fill="#49ADC3" transform="translate(341,254)"/>
<path d="M0 0 C0.33 1.32 0.66 2.64 1 4 C0.01 4 -0.98 4 -2 4 C-2 4.66 -2 5.32 -2 6 C-5.75960806 9.75960806 -8.75900345 10.58894145 -14 11 C-14 11.66 -14 12.32 -14 13 C-16.31 13.33 -18.62 13.66 -21 14 C-16.6226094 10.56675247 -11.84549356 7.81470252 -7.09375 4.9375 C-4.61954285 3.38799653 -2.29413884 1.79932458 0 0 Z " fill="#45A0B3" transform="translate(307,321)"/>
<path d="M0 0 C3.2542015 2.83430453 4.5206753 4.68607774 5 9 C4.47792969 8.79503906 3.95585937 8.59007812 3.41796875 8.37890625 C-2.70748632 6.13683951 -8.50382011 5.35212938 -15 5 C-15 4.67 -15 4.34 -15 4 C-12.03 4 -9.06 4 -6 4 C-6 3.34 -6 2.68 -6 2 C-4.02 2 -2.04 2 0 2 C0 1.34 0 0.68 0 0 Z " fill="#63D5DC" transform="translate(172,299)"/>
<path d="M0 0 C0.33 0.66 0.66 1.32 1 2 C1.66 2.33 2.32 2.66 3 3 C1.42301238 4.63115895 -0.16184366 6.25471333 -1.75 7.875 C-2.63171875 8.77992188 -3.5134375 9.68484375 -4.421875 10.6171875 C-6.61636684 12.64542996 -8.2667136 13.88880413 -11 15 C-10.625 12.5625 -10.625 12.5625 -10 10 C-9.34 9.67 -8.68 9.34 -8 9 C-7.34 9.33 -6.68 9.66 -6 10 C-6.33 8.68 -6.66 7.36 -7 6 C-5.68 6.33 -4.36 6.66 -3 7 C-3 5.68 -3 4.36 -3 3 C-2.01 3 -1.02 3 0 3 C0 2.01 0 1.02 0 0 Z " fill="#46A0B3" transform="translate(358,354)"/>
<path d="M0 0 C1.5 1.125 1.5 1.125 3 3 C3.1875 6.1875 3.1875 6.1875 3 9 C3.66 9 4.32 9 5 9 C5.09688221 14.44693314 5.12862175 19.63904667 4 25 C3.67 25 3.34 25 3 25 C2.86722656 23.865625 2.73445313 22.73125 2.59765625 21.5625 C2.41928669 20.04166481 2.24090038 18.52083158 2.0625 17 C1.97548828 16.25621094 1.88847656 15.51242188 1.79882812 14.74609375 C1.22146169 9.82778708 0.61972716 4.91315228 0 0 Z " fill="#4393A5" transform="translate(338,223)"/>
<path d="M0 0 C0.66 0.99 1.32 1.98 2 3 C1.34 3 0.68 3 0 3 C0 4.65 0 6.3 0 8 C-0.99 8.33 -1.98 8.66 -3 9 C-4.22520264 12.00847418 -4.22520264 12.00847418 -5 15 C-5.99 15 -6.98 15 -8 15 C-8 15.66 -8 16.32 -8 17 C-9.32 17.33 -10.64 17.66 -12 18 C-8.92296179 13.32290192 -5.72200234 8.74201616 -2.48828125 4.171875 C-0.98557954 2.08506099 -0.98557954 2.08506099 0 0 Z " fill="#3F93A2" transform="translate(329,295)"/>
<path d="M0 0 C-0.33 1.65 -0.66 3.3 -1 5 C-5.08443115 6.53166168 -8.79455657 5.63081652 -13 5 C-8.77614544 1.55834073 -5.49939416 0 0 0 Z " fill="#5BB0B2" transform="translate(200,105)"/>
<path d="M0 0 C0.66 0 1.32 0 2 0 C1.72285156 1.134375 1.44570312 2.26875 1.16015625 3.4375 C0.79404291 4.95827848 0.42817037 6.47911495 0.0625 8 C-0.11990234 8.74378906 -0.30230469 9.48757812 -0.49023438 10.25390625 C-1.66377209 15.1614276 -2.45834324 19.98254788 -3 25 C-3.33 25 -3.66 25 -4 25 C-5.1751551 19.32504213 -4.67642341 15.23049953 -3.125 9.6875 C-2.93808594 8.97271484 -2.75117188 8.25792969 -2.55859375 7.52148438 C-1.19438506 2.38877012 -1.19438506 2.38877012 0 0 Z " fill="#529A9D" transform="translate(162,217)"/>
<path d="M0 0 C7.39258257 1.65113519 14.20639425 3.62035269 21 7 C17.25890201 8.24703266 16.55570977 7.45460854 13 6 C10.67402489 5.6186926 8.34087842 5.27539746 6 5 C6 4.34 6 3.68 6 3 C3.03 2.505 3.03 2.505 0 2 C0 1.34 0 0.68 0 0 Z " fill="#418E9F" transform="translate(292,102)"/>
<path d="M0 0 C9.59453303 5.0022779 9.59453303 5.0022779 13 9 C12.01 9.495 12.01 9.495 11 10 C10.01 9.67 9.02 9.34 8 9 C8 8.34 8 7.68 8 7 C6.35 6.67 4.7 6.34 3 6 C3 5.01 3 4.02 3 3 C1.02 3.33 -0.96 3.66 -3 4 C-2.67 3.34 -2.34 2.68 -2 2 C-1.34 2 -0.68 2 0 2 C0 1.34 0 0.68 0 0 Z " fill="#439CAF" transform="translate(332,120)"/>
<path d="M0 0 C0.515625 0.268125 1.03125 0.53625 1.5625 0.8125 C6.27340997 3.1075587 11.12602079 5.07994759 16 7 C14.421875 8.2109375 14.421875 8.2109375 12 9 C9.5453777 7.98613427 7.50453746 6.97276745 5.25 5.625 C4.64800781 5.28210938 4.04601562 4.93921875 3.42578125 4.5859375 C1.94227881 3.73822182 0.46998513 2.87094495 -1 2 C-0.67 1.34 -0.34 0.68 0 0 Z " fill="#4296A9" transform="translate(172,381)"/>
<path d="M0 0 C-10.66666667 9 -10.66666667 9 -15 9 C-15 8.34 -15 7.68 -15 7 C-14.01 7 -13.02 7 -12 7 C-12 6.01 -12 5.02 -12 4 C-10.68 4 -9.36 4 -8 4 C-8 3.01 -8 2.02 -8 1 C-5.07175348 0.02391783 -3.04386724 -0.08226668 0 0 Z " fill="#4097A6" transform="translate(338,376)"/>
<path d="M0 0 C7.75 -0.125 7.75 -0.125 10 1 C11.53668865 1.22467831 13.07968054 1.40796805 14.625 1.5625 C15.85089844 1.68818359 15.85089844 1.68818359 17.1015625 1.81640625 C17.72804687 1.87699219 18.35453125 1.93757813 19 2 C19 2.66 19 3.32 19 4 C19.66 4.33 20.32 4.66 21 5 C13.76410027 4.39700836 7.00629124 2.8849413 0 1 C0 0.67 0 0.34 0 0 Z " fill="#4596A7" transform="translate(205,397)"/>
<path d="M0 0 C-2.28929053 1.17154293 -4.58118362 2.33738074 -6.875 3.5 C-7.52597656 3.83386719 -8.17695313 4.16773438 -8.84765625 4.51171875 C-13.7734375 7 -13.7734375 7 -16 7 C-16 6.01 -16 5.02 -16 4 C-14.7625 3.54625 -13.525 3.0925 -12.25 2.625 C-9.95572087 1.776763 -7.89195234 0.93997352 -5.75 -0.25 C-3.47548346 -1.2247928 -2.32338015 -0.67205211 0 0 Z " fill="#459AAC" transform="translate(323,386)"/>
<path d="M0 0 C8.415 2.475 8.415 2.475 17 5 C17 5.33 17 5.66 17 6 C13.37 6 9.74 6 6 6 C6 5.34 6 4.68 6 4 C4.02 3.34 2.04 2.68 0 2 C0 1.34 0 0.68 0 0 Z " fill="#4397A7" transform="translate(213,334)"/>
<path d="M0 0 C2.475 0.99 2.475 0.99 5 2 C3.60755361 4.78489278 1.44008012 6.12301529 -1 8 C-1.99 7.01 -2.98 6.02 -4 5 C-3.67 4.34 -3.34 3.68 -3 3 C-2.01 3 -1.02 3 0 3 C0 2.01 0 1.02 0 0 Z " fill="#3EADC7" transform="translate(163,369)"/>
<path d="M0 0 C3.80635497 3.20760251 7.54563567 6.40746109 11 10 C8.1875 10.3125 8.1875 10.3125 5 10 C2.59417489 6.99271862 1.33520648 3.59478667 0 0 Z " fill="#4197AD" transform="translate(184,314)"/>
<path d="M0 0 C1.65 0 3.3 0 5 0 C3.33784732 1.33895632 1.67036393 2.67130142 0 4 C-1.0828125 4.86625 -1.0828125 4.86625 -2.1875 5.75 C-4 7 -4 7 -6 7 C-6 5.35 -6 3.7 -6 2 C-4.02 1.67 -2.04 1.34 0 1 C0 0.67 0 0.34 0 0 Z " fill="#5CB2B2" transform="translate(201,169)"/>
<path d="M0 0 C3.2531655 3.74114033 5.44374911 8.31315138 7 13 C6.67 13.66 6.34 14.32 6 15 C5.01 14.34 4.02 13.68 3 13 C2.8125 9.875 2.8125 9.875 3 7 C2.34 7 1.68 7 1 7 C0.67 4.69 0.34 2.38 0 0 Z " fill="#3F92A0" transform="translate(386,179)"/>
<path d="M0 0 C0.99 0 1.98 0 3 0 C1.22054913 4.04420651 -1.39529673 7.46078487 -4 11 C-4.66 10.67 -5.32 10.34 -6 10 C-5.67 8.68 -5.34 7.36 -5 6 C-4.34 6.33 -3.68 6.66 -3 7 C-3 6.34 -3 5.68 -3 5 C-2.34 5 -1.68 5 -1 5 C-0.67 3.35 -0.34 1.7 0 0 Z " fill="#62B0B2" transform="translate(179,187)"/>
<path d="M0 0 C-1.59043379 5.08938811 -4.7446951 8.87456643 -8 13 C-8.33 12.01 -8.66 11.02 -9 10 C-4 0 -4 0 0 0 Z " fill="#418C9D" transform="translate(381,330)"/>
<path d="M0 0 C1.52194825 2.41721193 2.01261321 3.73512258 1.875 6.625 C1 9 1 9 -1.0546875 10.1484375 C-1.69664063 10.42945313 -2.33859375 10.71046875 -3 11 C-2.69078116 9.54096742 -2.37751201 8.08279278 -2.0625 6.625 C-1.88847656 5.81289062 -1.71445313 5.00078125 -1.53515625 4.1640625 C-1 2 -1 2 0 0 Z " fill="#5EB4B7" transform="translate(106,194)"/>
<path d="M0 0 C3.86648272 1.04097612 7.49461443 2.03698408 11 4 C10.67 5.65 10.34 7.3 10 9 C8.8944811 8.06409496 7.79064547 7.12620142 6.6875 6.1875 C6.07261719 5.66542969 5.45773437 5.14335937 4.82421875 4.60546875 C3.14575321 3.12827531 1.56117966 1.59960869 0 0 Z " fill="#499DB6" transform="translate(308,179)"/>
<path d="M0 0 C2.64 0 5.28 0 8 0 C5.50742747 1.66171502 3.20483487 2.9387679 0.5 4.1875 C-0.2734375 4.55230469 -1.046875 4.91710937 -1.84375 5.29296875 C-4 6 -4 6 -7 5 C-4.38058783 3.25372522 -2.96175123 2.61277612 0 2 C0 1.34 0 0.68 0 0 Z " fill="#56A7A6" transform="translate(212,163)"/>
<path d="M0 0 C2.97 0.99 5.94 1.98 9 3 C9 4.98 9 6.96 9 9 C7.87105124 8.06725891 6.74699124 7.12859878 5.625 6.1875 C4.99851563 5.66542969 4.37203125 5.14335937 3.7265625 4.60546875 C2 3 2 3 0 0 Z " fill="#4DA8BB" transform="translate(134,351)"/>
<path d="M0 0 C0.66 0.33 1.32 0.66 2 1 C0.17328621 3.53926173 -1.66877878 5.9050512 -4 8 C-7.375 8.4375 -7.375 8.4375 -10 8 C-6.97727468 4.74475735 -3.74281699 2.38179263 0 0 Z " fill="#57A9A8" transform="translate(168,119)"/>
<path d="M0 0 C4.8274799 1.41292095 8.7162359 3.42974154 13 6 C13 6.33 13 6.66 13 7 C9.28400809 7.20086443 8.22791555 7.1519437 5 5 C5 4.34 5 3.68 5 3 C3.35 2.67 1.7 2.34 0 2 C0 1.34 0 0.68 0 0 Z " fill="#3C8797" transform="translate(314,110)"/>
<path d="M0 0 C-1.32 0.99 -2.64 1.98 -4 3 C-4.66 2.67 -5.32 2.34 -6 2 C-6 2.66 -6 3.32 -6 4 C-7.65 4.33 -9.3 4.66 -11 5 C-4.75324675 -1.58441558 -4.75324675 -1.58441558 0 0 Z " fill="#67C4C3" transform="translate(163,127)"/>
<path d="M0 0 C2.4375 0.6875 2.4375 0.6875 5 2 C5.6875 4.5625 5.6875 4.5625 6 7 C6.66 7.33 7.32 7.66 8 8 C7.01 8 6.02 8 5 8 C0 2.65116279 0 2.65116279 0 0 Z " fill="#529EA2" transform="translate(127,342)"/>
<path d="M0 0 C0.33 0 0.66 0 1 0 C1.33 4.29 1.66 8.58 2 13 C1.01 13.33 0.02 13.66 -1 14 C-0.67 9.38 -0.34 4.76 0 0 Z " fill="#3B8697" transform="translate(341,254)"/>
<path d="M0 0 C0.33 1.32 0.66 2.64 1 4 C0.01 4 -0.98 4 -2 4 C-2 4.66 -2 5.32 -2 6 C-3.98 6.33 -5.96 6.66 -8 7 C-5.42215154 4.35247996 -3.08351902 2.05567935 0 0 Z " fill="#4191A0" transform="translate(307,321)"/>
<path d="M0 0 C1.98 0.495 1.98 0.495 4 1 C4.33 2.65 4.66 4.3 5 6 C3.02 5.34 1.04 4.68 -1 4 C-0.67 2.68 -0.34 1.36 0 0 Z " fill="#64C4CB" transform="translate(172,302)"/>
<path d="M0 0 C0.33 0 0.66 0 1 0 C1.14285714 8.57142857 1.14285714 8.57142857 0 12 C-0.66 12 -1.32 12 -2 12 C-1.85831863 10.56208484 -1.71148957 9.1246763 -1.5625 7.6875 C-1.48128906 6.88699219 -1.40007812 6.08648437 -1.31640625 5.26171875 C-1 3 -1 3 0 0 Z " fill="#52A3A0" transform="translate(101,209)"/>
<path d="M0 0 C-0.33 1.32 -0.66 2.64 -1 4 C-5.455 4.495 -5.455 4.495 -10 5 C-3.63636364 0 -3.63636364 0 0 0 Z " fill="#5DB2B2" transform="translate(183,112)"/>
<path d="M0 0 C0.66 0 1.32 0 2 0 C2 1.32 2 2.64 2 4 C1.01 4 0.02 4 -1 4 C-1 4.66 -1 5.32 -1 6 C-2.32 6.33 -3.64 6.66 -5 7 C-1.125 1.125 -1.125 1.125 0 0 Z " fill="#4698AC" transform="translate(322,306)"/>
<path d="M0 0 C0.66 0 1.32 0 2 0 C1.01 3.96 0.02 7.92 -1 12 C-1.33 12 -1.66 12 -2 12 C-2.28571429 3.42857143 -2.28571429 3.42857143 0 0 Z " fill="#58A6A7" transform="translate(162,217)"/>
<path d="M0 0 C2.4375 0.6875 2.4375 0.6875 5 2 C5.9375 4.5 5.9375 4.5 6 7 C5.34 7.66 4.68 8.32 4 9 C2.68 6.03 1.36 3.06 0 0 Z " fill="#3F8A9D" transform="translate(328,202)"/>
<path d="M0 0 C0.99 0.33 1.98 0.66 3 1 C0.36 2.98 -2.28 4.96 -5 7 C-5 5.35 -5 3.7 -5 2 C-3.35 2 -1.7 2 0 2 C0 1.34 0 0.68 0 0 Z " fill="#62B3B4" transform="translate(192,176)"/>
<path d="M0 0 C0.33 0.66 0.66 1.32 1 2 C-1.17508418 6.69360269 -1.17508418 6.69360269 -4.1875 7.8125 C-4.785625 7.874375 -5.38375 7.93625 -6 8 C-4.26440562 4.942048 -2.61527381 2.36620011 0 0 Z " fill="#59AAA9" transform="translate(136,146)"/>
<path d="M0 0 C2.31 0.66 4.62 1.32 7 2 C7 2.99 7 3.98 7 5 C7.66 5 8.32 5 9 5 C8.67 5.66 8.34 6.32 8 7 C6.66382648 6.02471263 5.3311249 5.04466681 4 4.0625 C3.2575 3.51722656 2.515 2.97195313 1.75 2.41015625 C1.1725 1.94480469 0.595 1.47945313 0 1 C0 0.67 0 0.34 0 0 Z " fill="#3E8C9B" transform="translate(150,367)"/>
<path d="M0 0 C1.21816406 0.03480469 1.21816406 0.03480469 2.4609375 0.0703125 C3.68683594 0.09738281 3.68683594 0.09738281 4.9375 0.125 C5.87722656 0.15980469 5.87722656 0.15980469 6.8359375 0.1953125 C6.5059375 1.1853125 6.1759375 2.1753125 5.8359375 3.1953125 C2.5359375 2.8653125 -0.7640625 2.5353125 -4.1640625 2.1953125 C-2.1640625 0.1953125 -2.1640625 0.1953125 0 0 Z " fill="#62C9CA" transform="translate(191.1640625,107.8046875)"/>
<path d="M0 0 C2.66666667 1.33333333 5.33333333 2.66666667 8 4 C8 4.66 8 5.32 8 6 C4.54074837 4.7508258 1.85306797 3.32472205 -1 1 C-0.67 0.67 -0.34 0.34 0 0 Z " fill="#3F889C" transform="translate(172,381)"/>
<path d="M0 0 C1.98 1.65 3.96 3.3 6 5 C5.34 5.66 4.68 6.32 4 7 C4 6.34 4 5.68 4 5 C2.68 4.67 1.36 4.34 0 4 C0 2.68 0 1.36 0 0 Z " fill="#469EB2" transform="translate(178,308)"/>
<path d="M0 0 C0.66 0 1.32 0 2 0 C1.01 2.97 0.02 5.94 -1 9 C-1.33 9 -1.66 9 -2 9 C-2.125 5.625 -2.125 5.625 -2 2 C-1.34 1.34 -0.68 0.68 0 0 Z " fill="#3F95A5" transform="translate(392,304)"/>
<path d="M0 0 C0.99 0.33 1.98 0.66 3 1 C2.67 4.3 2.34 7.6 2 11 C1.67 11 1.34 11 1 11 C0.67 7.37 0.34 3.74 0 0 Z " fill="#75E2E0" transform="translate(99,272)"/>
<path d="M0 0 C4 4.75 4 4.75 4 7 C2.35 7.33 0.7 7.66 -1 8 C-0.67 5.36 -0.34 2.72 0 0 Z " fill="#4097A9" transform="translate(380,168)"/>
<path d="M0 0 C2.64752004 2.57784846 4.94432065 4.91648098 7 8 C6.401875 7.690625 5.80375 7.38125 5.1875 7.0625 C2.91043228 5.89790296 2.91043228 5.89790296 0 5 C0 3.35 0 1.7 0 0 Z " fill="#4195A7" transform="translate(363,146)"/>
<path d="M0 0 C3.37462715 0.54723683 5.08235 1.0549 8 3 C4.67465243 4.10844919 2.37817425 3.84454356 -1 3 C-0.67 2.01 -0.34 1.02 0 0 Z " fill="#3C8D9B" transform="translate(265,157)"/>
<path d="M0 0 C2.31 0.33 4.62 0.66 7 1 C6.67 1.66 6.34 2.32 6 3 C3.36 3 0.72 3 -2 3 C-1.34 2.67 -0.68 2.34 0 2 C0 1.34 0 0.68 0 0 Z " fill="#419EB3" transform="translate(284,100)"/>
<path d="M0 0 C0.99 0 1.98 0 3 0 C3.99 1.98 4.98 3.96 6 6 C5.01 6 4.02 6 3 6 C0 2.66666667 0 2.66666667 0 0 Z " fill="#56A2A3" transform="translate(122,335)"/>
<path d="M0 0 C0.33 0 0.66 0 1 0 C1.1953125 6.0546875 1.1953125 6.0546875 1 8 C0.34 8.66 -0.32 9.32 -1 10 C-2.46726798 6.18510326 -1.43336419 3.70988378 0 0 Z " fill="#4097A8" transform="translate(338,274)"/>
<path d="M0 0 C2.29633824 3.44450737 2.54016485 5.93812283 3 10 C2.67 9.34 2.34 8.68 2 8 C1.34 8 0.68 8 0 8 C0 5.36 0 2.72 0 0 Z " fill="#3F8DA3" transform="translate(395,200)"/>
<path d="" fill="#000000" transform="translate(0,0)"/>
<path d="" fill="#000000" transform="translate(0,0)"/>
<path d="" fill="#000000" transform="translate(0,0)"/>
<path d="" fill="#000000" transform="translate(0,0)"/>
<path d="" fill="#000000" transform="translate(0,0)"/>
<path d="" fill="#000000" transform="translate(0,0)"/>
<path d="" fill="#000000" transform="translate(0,0)"/>
<path d="" fill="#000000" transform="translate(0,0)"/>
<path d="" fill="#000000" transform="translate(0,0)"/>
<path d="" fill="#000000" transform="translate(0,0)"/>
<path d="" fill="#000000" transform="translate(0,0)"/>
<path d="" fill="#000000" transform="translate(0,0)"/>
<path d="" fill="#000000" transform="translate(0,0)"/>
<path d="" fill="#000000" transform="translate(0,0)"/>
<path d="" fill="#000000" transform="translate(0,0)"/>
<path d="" fill="#000000" transform="translate(0,0)"/>
<path d="" fill="#000000" transform="translate(0,0)"/>
<path d="" fill="#000000" transform="translate(0,0)"/>
<path d="" fill="#000000" transform="translate(0,0)"/>
<path d="" fill="#000000" transform="translate(0,0)"/>
<path d="" fill="#000000" transform="translate(0,0)"/>
<path d="" fill="#000000" transform="translate(0,0)"/>
<path d="" fill="#000000" transform="translate(0,0)"/>
<path d="" fill="#000000" transform="translate(0,0)"/>
<path d="" fill="#000000" transform="translate(0,0)"/>
<path d="" fill="#000000" transform="translate(0,0)"/>
<path d="" fill="#000000" transform="translate(0,0)"/>
<path d="" fill="#000000" transform="translate(0,0)"/>
<path d="" fill="#000000" transform="translate(0,0)"/>
<path d="" fill="#000000" transform="translate(0,0)"/>
<path d="" fill="#000000" transform="translate(0,0)"/>
<path d="" fill="#000000" transform="translate(0,0)"/>
<path d="" fill="#000000" transform="translate(0,0)"/>
<path d="" fill="#000000" transform="translate(0,0)"/>
<path d="" fill="#000000" transform="translate(0,0)"/>
<path d="" fill="#000000" transform="translate(0,0)"/>
<path d="" fill="#000000" transform="translate(0,0)"/>
<path d="" fill="#000000" transform="translate(0,0)"/>
<path d="" fill="#000000" transform="translate(0,0)"/>
<path d="" fill="#000000" transform="translate(0,0)"/>
<path d="" fill="#000000" transform="translate(0,0)"/>
<path d="" fill="#000000" transform="translate(0,0)"/>
<path d="" fill="#000000" transform="translate(0,0)"/>
<path d="" fill="#000000" transform="translate(0,0)"/>
<path d="" fill="#000000" transform="translate(0,0)"/>
<path d="" fill="#000000" transform="translate(0,0)"/>
<path d="" fill="#000000" transform="translate(0,0)"/>
<path d="" fill="#000000" transform="translate(0,0)"/>
<path d="" fill="#000000" transform="translate(0,0)"/>
<path d="" fill="#000000" transform="translate(0,0)"/>
<path d="" fill="#000000" transform="translate(0,0)"/>
<path d="" fill="#000000" transform="translate(0,0)"/>
<path d="" fill="#000000" transform="translate(0,0)"/>
<path d="" fill="#000000" transform="translate(0,0)"/>
<path d="" fill="#000000" transform="translate(0,0)"/>
<path d="" fill="#000000" transform="translate(0,0)"/>
<path d="" fill="#000000" transform="translate(0,0)"/>
<path d="" fill="#000000" transform="translate(0,0)"/>
<path d="" fill="#000000" transform="translate(0,0)"/>
<path d="" fill="#000000" transform="translate(0,0)"/>
<path d="" fill="#000000" transform="translate(0,0)"/>
<path d="" fill="#000000" transform="translate(0,0)"/>
<path d="" fill="#000000" transform="translate(0,0)"/>
<path d="" fill="#000000" transform="translate(0,0)"/>
<path d="" fill="#000000" transform="translate(0,0)"/>
<path d="" fill="#000000" transform="translate(0,0)"/>
<path d="" fill="#000000" transform="translate(0,0)"/>
<path d="" fill="#000000" transform="translate(0,0)"/>
<path d="" fill="#000000" transform="translate(0,0)"/>
<path d="" fill="#000000" transform="translate(0,0)"/>
<path d="" fill="#000000" transform="translate(0,0)"/>
<path d="" fill="#000000" transform="translate(0,0)"/>
<path d="" fill="#000000" transform="translate(0,0)"/>
</svg>