<svg xmlns="http://www.w3.org/2000/svg" version="1.1" viewBox="118.52 226.22 240.48 47.41">
<path d="M0 0 C5.7694559 3.52097416 9.98567375 8.77188643 12.09765625 15.1953125 C13.29882193 21.88918726 12.21240451 28.73630735 8.5 34.4375 C4.98648596 39.45680577 1.5062192 42.76962634 -4.5 44.4375 C-11.53009965 45.24140871 -18.59947831 45.53797665 -24.8203125 41.7734375 C-29.41978475 38.11525259 -32.70855185 34.07241873 -34.5 28.4375 C-35.20591124 21.56717778 -35.63030887 14.28583926 -31.9765625 8.1875 C-24.0721419 -1.18070219 -11.67731089 -5.30580728 0 0 Z M-23.5 14.4375 C-25.37855086 18.19460172 -25.16379578 22.35728738 -24.5 26.4375 C-22.49988833 29.87153788 -20.07648506 32.64925747 -16.5 34.4375 C-12.43655141 34.94908525 -8.28600498 35.37769368 -4.578125 33.42578125 C-1.59373288 30.96587388 1.23215082 28.29505143 1.80078125 24.3515625 C1.83324809 18.00970724 0.70696233 14.91197292 -3.5625 10.125 C-11.21798834 5.72716627 -18.03783353 7.98980502 -23.5 14.4375 Z " fill="#41B9D5" transform="translate(153.5,228.5625)"/>
<path d="M0 0 C-0.0825 0.928125 -0.165 1.85625 -0.25 2.8125 C-0.12625 4.3903125 -0.12625 4.3903125 0 6 C1.95050405 7.71322514 1.95050405 7.71322514 4 9 C3.34773438 9.01417969 2.69546875 9.02835938 2.0234375 9.04296875 C-4.38894295 9.39290692 -7.54842701 10.32014122 -12 15 C-13.44207941 17.88415883 -13.09394887 20.41721528 -13.0625 23.625 C-13.05347656 24.81351563 -13.04445312 26.00203125 -13.03515625 27.2265625 C-13.02355469 28.14179688 -13.01195312 29.05703125 -13 30 C-13.63421875 30.11214844 -14.2684375 30.22429687 -14.921875 30.33984375 C-15.60765625 30.55769531 -16.2934375 30.77554687 -17 31 C-18.29660434 33.49034386 -18.29660434 33.49034386 -19 36 C-22.49639513 32.72917875 -23.86005295 30.80554632 -24.23828125 25.92578125 C-24.41158603 17.48857499 -24.16228907 11.58557271 -18.38671875 5.22265625 C-12.7081945 -0.12850296 -7.62125884 -0.15242518 0 0 Z " fill="#6DE1E6" transform="translate(143,228)"/>
<path d="M0 0 C1.32 0 2.64 0 4 0 C4 0.99 4 1.98 4 3 C4.99 3 5.98 3 7 3 C7 4.32 7 5.64 7 7 C6.01 7 5.02 7 4 7 C4 8.65 4 10.3 4 12 C4.99 12 5.98 12 7 12 C7 13.32 7 14.64 7 16 C5.00045254 16.04254356 2.99958364 16.04080783 1 16 C0 15 0 15 -0.09765625 13.15234375 C-0.04882812 10.07617188 -0.04882812 10.07617188 0 7 C-3.32173117 7.71693158 -3.32173117 7.71693158 -4.60546875 11.16015625 C-5.14390274 12.45638622 -5.67083429 13.75744068 -6.1875 15.0625 C-6.59645508 16.05733398 -6.59645508 16.05733398 -7.01367188 17.07226562 C-7.6856086 18.71084817 -8.34409628 20.35493403 -9 22 C-10.65 22 -12.3 22 -14 22 C-13.83951172 21.14728516 -13.83951172 21.14728516 -13.67578125 20.27734375 C-12.76203179 14.39201123 -13.35205398 11.29589204 -16 6 C-16 5.01 -16 4.02 -16 3 C-13.525 3.495 -13.525 3.495 -11 4 C-10.67 5.65 -10.34 7.3 -10 9 C-9.34 9 -8.68 9 -8 9 C-7.67 7.02 -7.34 5.04 -7 3 C-4.69 3 -2.38 3 0 3 C0 2.01 0 1.02 0 0 Z " fill="#FAFBFB" transform="translate(332,242)"/>
<path d="M0 0 C3.77918486 2.90956598 6.79827003 3.226246 11.49609375 3.00390625 C15.08931373 2.33718399 17.09949803 0.89976482 19.875 -1.4375 C19.545 0.5425 19.215 2.5225 18.875 4.5625 C13.09085056 5.94566617 8.77864296 6.57043904 2.875 5.5625 C0.97541919 6.87568262 0.97541919 6.87568262 -0.125 8.5625 C0.205 9.5525 0.535 10.5425 0.875 11.5625 C6.485 11.5625 12.095 11.5625 17.875 11.5625 C18.535 10.2425 19.195 8.9225 19.875 7.5625 C21.20833333 7.22916667 22.54166667 6.89583333 23.875 6.5625 C25.15936734 4.5787233 25.15936734 4.5787233 25.875 2.5625 C26.535 2.5625 27.195 2.5625 27.875 2.5625 C28.205 1.2425 28.535 -0.0775 28.875 -1.4375 C29.52734375 0.34375 29.52734375 0.34375 29.875 2.5625 C27.45140351 7.18660041 23.06877844 10.80334073 18.34375 12.90234375 C11.56539958 14.71490897 3.70136982 14.83489814 -2.75 11.875 C-5.92501952 9.97407629 -8.06337093 7.6549436 -10.125 4.5625 C-7.67497328 -1.1950628 -7.67497328 -1.1950628 -5.2109375 -2.28125 C-3.125 -2.4375 -3.125 -2.4375 0 0 Z " fill="#48B4CB" transform="translate(133.125,259.4375)"/>
<path d="M0 0 C2.475 0.495 2.475 0.495 5 1 C5.33 2.32 5.66 3.64 6 5 C6.33 3.35 6.66 1.7 7 0 C8.65 0 10.3 0 12 0 C12.66 1.65 13.32 3.3 14 5 C14.33 3.35 14.66 1.7 15 0 C16.65 0 18.3 0 20 0 C19.01 4.29 18.02 8.58 17 13 C15.02 13 13.04 13 11 13 C10.67 11.68 10.34 10.36 10 9 C9.34 10.32 8.68 11.64 8 13 C6.35 13 4.7 13 3 13 C2.49487756 11.39743892 1.99608373 9.79288208 1.5 8.1875 C1.2215625 7.29417969 0.943125 6.40085938 0.65625 5.48046875 C0 3 0 3 0 0 Z " fill="#F7F9F8" transform="translate(195,245)"/>
<path d="M0 0 C1.98 0 3.96 0 6 0 C6.8394882 2.10171867 7.67139656 4.20646625 8.5 6.3125 C8.9640625 7.48425781 9.428125 8.65601563 9.90625 9.86328125 C11 13 11 13 11 16 C9.35 16 7.7 16 6 16 C6 15.34 6 14.68 6 14 C4.02 14 2.04 14 0 14 C0 14.66 0 15.32 0 16 C-1.65 16 -3.3 16 -5 16 C-3.41078475 10.63904723 -1.81027062 5.29156027 0 0 Z M2 7 C2 7.99 2 8.98 2 10 C2.66 10 3.32 10 4 10 C4 9.01 4 8.02 4 7 C3.34 7 2.68 7 2 7 Z " fill="#FAFCFB" transform="translate(267,242)"/>
<path d="M0 0 C2.79947917 0.06510417 5.59895833 0.13020833 8.3984375 0.1953125 C8.3984375 4.4853125 8.3984375 8.7753125 8.3984375 13.1953125 C0.29321202 14.76796819 0.29321202 14.76796819 -3.7265625 12.1953125 C-5.6015625 9.1953125 -5.6015625 9.1953125 -5.5390625 5.5078125 C-4.46121708 1.69942536 -4.06319374 0.30504458 0 0 Z M0.3984375 4.1953125 C0.0684375 5.8453125 -0.2615625 7.4953125 -0.6015625 9.1953125 C0.7184375 9.1953125 2.0384375 9.1953125 3.3984375 9.1953125 C3.3984375 7.5453125 3.3984375 5.8953125 3.3984375 4.1953125 C2.4084375 4.1953125 1.4184375 4.1953125 0.3984375 4.1953125 Z " fill="#FAFBFB" transform="translate(299.6015625,244.8046875)"/>
<path d="M0 0 C2.38671875 -0.15625 2.38671875 -0.15625 5 0 C6.8125 2.5 6.8125 2.5 8 5 C8.66 3.35 9.32 1.7 10 0 C11.65 0 13.3 0 15 0 C13.00386732 6.7186905 10.2708579 12.80734808 7 19 C5.68 19 4.36 19 3 19 C3.2475 17.906875 3.495 16.81375 3.75 15.6875 C4.52088821 9.96237022 2.21875784 5.18027581 0 0 Z " fill="#F8FAF9" transform="translate(242,245)"/>
<path d="M0 0 C0.88429688 -0.02578125 1.76859375 -0.0515625 2.6796875 -0.078125 C5.125 0.25 5.125 0.25 6.93359375 1.44140625 C8.54122935 3.8818498 8.42532617 5.54162841 8.3125 8.4375 C8.28542969 9.33855469 8.25835937 10.23960937 8.23046875 11.16796875 C8.19566406 11.85503906 8.16085937 12.54210937 8.125 13.25 C6.475 13.25 4.825 13.25 3.125 13.25 C3.125 10.28 3.125 7.31 3.125 4.25 C2.135 4.58 1.145 4.91 0.125 5.25 C-0.205 7.89 -0.535 10.53 -0.875 13.25 C-2.195 13.25 -3.515 13.25 -4.875 13.25 C-6.12569801 10.74860398 -6.00802467 8.97607309 -6 6.1875 C-6.00257813 5.28902344 -6.00515625 4.39054688 -6.0078125 3.46484375 C-5.76231459 -0.62919491 -3.61077909 0.06279616 0 0 Z " fill="#FAFCFB" transform="translate(284.875,244.75)"/>
<path d="M0 0 C1.32 0 2.64 0 4 0 C4.33 2.31 4.66 4.62 5 7 C5.66 6.01 6.32 5.02 7 4 C10.125 3.8125 10.125 3.8125 13 4 C11.68 6.31 10.36 8.62 9 11 C10.98 13.97 10.98 13.97 13 17 C10.125 17.1875 10.125 17.1875 7 17 C6.34 16.01 5.68 15.02 5 14 C4.67 14.99 4.34 15.98 4 17 C2.68 17 1.36 17 0 17 C0 11.39 0 5.78 0 0 Z " fill="#F8F9F9" transform="translate(216,241)"/>
<path d="M0 0 C1.875 1.0625 1.875 1.0625 3 3 C3.64615385 9.03076923 3.64615385 9.03076923 1.75 11.875 C-0.31648817 13.20345668 -1.52874594 13.85463211 -4 14 C-6.6875 13 -6.6875 13 -9 11 C-10.0625 7.5625 -10.0625 7.5625 -10 4 C-7.33590339 -0.15599071 -4.77534506 -0.7112216 0 0 Z M-5 8 C-4.34 8.66 -3.68 9.32 -3 10 C-2.34 9.34 -1.68 8.68 -1 8 C-2.32 8 -3.64 8 -5 8 Z " fill="#F8FAF9" transform="translate(239,245)"/>
<path d="M0 0 C2.42194927 1.53390121 2.88729401 2.69408374 3.875 5.375 C4.04145361 8.87052572 3.22535743 10.32957109 1 13 C-1.375 14 -1.375 14 -4 14 C-6.2831838 12.8584081 -8.19012683 11.80987317 -10 10 C-10.45681382 3.83301344 -10.45681382 3.83301344 -8.9375 1.0625 C-5.88023824 -0.6140629 -3.4093712 -0.36528977 0 0 Z M-5 4 C-5 5.65 -5 7.3 -5 9 C-3.68 8.67 -2.36 8.34 -1 8 C-1.33 6.68 -1.66 5.36 -2 4 C-2.99 4 -3.98 4 -5 4 Z " fill="#F7F8F8" transform="translate(191,245)"/>
<path d="M0 0 C1.875 1.375 1.875 1.375 3 3 C3 3.66 3 4.32 3 5 C0.69 5 -1.62 5 -4 5 C-4.33 6.32 -4.66 7.64 -5 9 C-2.36 8.67 0.28 8.34 3 8 C2.875 9.875 2.875 9.875 2 12 C-0.75 13.4375 -0.75 13.4375 -4 14 C-6.8125 13 -6.8125 13 -9 11 C-10.02887287 7.77619834 -10.31430743 5.89456729 -9.1875 2.6875 C-6.79913904 -0.70648663 -3.8719179 -0.31607493 0 0 Z " fill="#F8F9F9" transform="translate(356,245)"/>
<path d="M0 0 C6.1816634 1.62062447 10.62581567 5.65014195 14 11 C14.95480455 13.35946893 15.4878524 15.49047676 16 18 C15.01 17.67 14.02 17.34 13 17 C12.67 16.01 12.34 15.02 12 14 C11.01 14 10.02 14 9 14 C8.34 13.67 7.68 13.34 7 13 C7.2475 13.9590625 7.2475 13.9590625 7.5 14.9375 C8.15932515 18.97586652 8.08003779 22.91807258 8 27 C7.34 27 6.68 27 6 27 C5.90203125 26.26394531 5.8040625 25.52789062 5.703125 24.76953125 C4.54506458 17.13205407 4.54506458 17.13205407 0 11 C1.32 11 2.64 11 4 11 C6.20067421 10.06716704 6.20067421 10.06716704 8 9 C8 8.34 8 7.68 8 7 C0.63795217 0.92631054 -7.89672034 1.84939427 -17 2 C-11.89362538 -1.40424974 -5.95814165 -0.52241198 0 0 Z " fill="#5AB8CD" transform="translate(149,227)"/>
<path d="M0 0 C0.66 1.32 1.32 2.64 2 4 C-1.85510527 9.19855105 -5.60040926 13.28871703 -12 15 C-19.85882201 15.89054408 -27.54248041 16.07840108 -34 11 C-36.5 8.25 -36.5 8.25 -38 6 C-37.278125 6.37125 -36.55625 6.7425 -35.8125 7.125 C-32.39011689 8.18974141 -31.11771927 7.60339848 -28 6 C-28.66 7.65 -29.32 9.3 -30 11 C-29.01 11 -28.02 11 -27 11 C-27 11.66 -27 12.32 -27 13 C-21.39 13 -15.78 13 -10 13 C-9.34 11.68 -8.68 10.36 -8 9 C-6.66666667 8.66666667 -5.33333333 8.33333333 -4 8 C-2.71563266 6.0162233 -2.71563266 6.0162233 -2 4 C-1.34 4 -0.68 4 0 4 C0 2.68 0 1.36 0 0 Z " fill="#58B8CC" transform="translate(161,258)"/>
<path d="M0 0 C1.65 0 3.3 0 5 0 C5 5.61 5 11.22 5 17 C3.35 17 1.7 17 0 17 C0 11.39 0 5.78 0 0 Z " fill="#F8FAF9" transform="translate(310,241)"/>
<path d="M0 0 C1.32 0 2.64 0 4 0 C4 4.29 4 8.58 4 13 C5.65 13 7.3 13 9 13 C9.33 13.99 9.66 14.98 10 16 C6.7 16 3.4 16 0 16 C0 10.72 0 5.44 0 0 Z " fill="#F9FAFA" transform="translate(171,242)"/>
<path d="M0 0 C1.65 0.99 3.3 1.98 5 3 C4.67 3.99 4.34 4.98 4 6 C3.01 6 2.02 6 1 6 C1 7.65 1 9.3 1 11 C0.21625 11.28875 -0.5675 11.5775 -1.375 11.875 C-4.09671632 12.84912254 -4.09671632 12.84912254 -6 15 C-6.66 14.34 -7.32 13.68 -8 13 C-8 12.34 -8 11.68 -8 11 C-7.34 11 -6.68 11 -6 11 C-6 9.02 -6 7.04 -6 5 C-5.38125 4.731875 -4.7625 4.46375 -4.125 4.1875 C-1.7004767 3.04443152 -1.7004767 3.04443152 0 0 Z " fill="#6CE4E9" transform="translate(129,232)"/>
<path d="M0 0 C1.65 0 3.3 0 5 0 C5 4.29 5 8.58 5 13 C3.35 13 1.7 13 0 13 C0 8.71 0 4.42 0 0 Z " fill="#F4F8F7" transform="translate(340,245)"/>
<path d="M0 0 C2.4375 0.25 2.4375 0.25 5 1 C5.66 1.99 6.32 2.98 7 4 C6.02617818 6.51570636 5.53848865 7.73944098 3.0625 8.9375 C1 9 1 9 -0.8125 7.875 C-2 6 -2 6 -1.75 3.375 C-1 1 -1 1 0 0 Z " fill="#41B9D4" transform="translate(126,258)"/>
<path d="M0 0 C0.33 0 0.66 0 1 0 C1 2.64 1 5.28 1 8 C0.34 8 -0.32 8 -1 8 C-1 12.95 -1 17.9 -1 23 C-3.4214607 19.36780895 -3.29869516 17.50841442 -3.3125 13.1875 C-3.32925781 11.98480469 -3.34601563 10.78210938 -3.36328125 9.54296875 C-2.97224111 5.72927617 -1.91114324 3.29281408 0 0 Z " fill="#79D5D3" transform="translate(122,237)"/>
<path d="M0 0 C0.66 1.32 1.32 2.64 2 4 C-4.44280443 12.08118081 -4.44280443 12.08118081 -9 14 C-11.3125 13.6875 -11.3125 13.6875 -13 13 C-12.01 13 -11.02 13 -10 13 C-9.62875 12.0409375 -9.62875 12.0409375 -9.25 11.0625 C-7.67012061 8.455699 -6.83219689 8.70804922 -4 8 C-2.71563266 6.0162233 -2.71563266 6.0162233 -2 4 C-1.34 4 -0.68 4 0 4 C0 2.68 0 1.36 0 0 Z " fill="#59C0D9" transform="translate(161,258)"/>
<path d="M0 0 C1.00289062 0.10183594 2.00578125 0.20367187 3.0390625 0.30859375 C3.80992187 0.39238281 4.58078125 0.47617188 5.375 0.5625 C5.375 0.8925 5.375 1.2225 5.375 1.5625 C4.73433594 1.57667969 4.09367188 1.59085938 3.43359375 1.60546875 C-3.16034244 1.96906881 -6.58800759 3.29200643 -11.625 7.5625 C-11.625 5.9125 -11.625 4.2625 -11.625 2.5625 C-10.305 2.5625 -8.985 2.5625 -7.625 2.5625 C-7.625 1.9025 -7.625 1.2425 -7.625 0.5625 C-4.89657939 -0.80171031 -3.01546682 -0.31557211 0 0 Z " fill="#76D5D9" transform="translate(141.625,235.4375)"/>
<path d="M0 0 C2.31 0 4.62 0 7 0 C7.33 1.65 7.66 3.3 8 5 C4.65626525 4.44271087 1.96687001 3.64826111 -1 2 C-0.67 1.34 -0.34 0.68 0 0 Z " fill="#68E5E4" transform="translate(132,229)"/>
<path d="M0 0 C0.66 0.33 1.32 0.66 2 1 C1.67 1.99 1.34 2.98 1 4 C0.34 4 -0.32 4 -1 4 C-1.66 4.66 -2.32 5.32 -3 6 C-3.66 6.66 -4.32 7.32 -5 8 C-5.66 8 -6.32 8 -7 8 C-5.50902342 4.2047869 -3.24299151 2.38957269 0 0 Z " fill="#6FCCC8" transform="translate(130,229)"/>
<path d="M0 0 C0.33 0 0.66 0 1 0 C1 3.3 1 6.6 1 10 C-0.65 10 -2.3 10 -4 10 C-3.67 8.68 -3.34 7.36 -3 6 C-2.01 6.33 -1.02 6.66 0 7 C0 4.69 0 2.38 0 0 Z " fill="#F4F6F5" transform="translate(292,248)"/>
<path d="M0 0 C0.99 0.33 1.98 0.66 3 1 C3 2.32 3 3.64 3 5 C1.35 5 -0.3 5 -2 5 C-2 3.68 -2 2.36 -2 1 C-1.34 0.67 -0.68 0.34 0 0 Z " fill="#EEF1F1" transform="translate(342,239)"/>
<path d="" fill="#000000" transform="translate(0,0)"/>
<path d="" fill="#000000" transform="translate(0,0)"/>
<path d="" fill="#000000" transform="translate(0,0)"/>
<path d="" fill="#000000" transform="translate(0,0)"/>
<path d="" fill="#000000" transform="translate(0,0)"/>
<path d="" fill="#000000" transform="translate(0,0)"/>
<path d="" fill="#000000" transform="translate(0,0)"/>
<path d="" fill="#000000" transform="translate(0,0)"/>
<path d="" fill="#000000" transform="translate(0,0)"/>
<path d="" fill="#000000" transform="translate(0,0)"/>
<path d="" fill="#000000" transform="translate(0,0)"/>
<path d="" fill="#000000" transform="translate(0,0)"/>
<path d="" fill="#000000" transform="translate(0,0)"/>
<path d="" fill="#000000" transform="translate(0,0)"/>
<path d="" fill="#000000" transform="translate(0,0)"/>
<path d="" fill="#000000" transform="translate(0,0)"/>
<path d="" fill="#000000" transform="translate(0,0)"/>
<path d="" fill="#000000" transform="translate(0,0)"/>
<path d="" fill="#000000" transform="translate(0,0)"/>
<path d="" fill="#000000" transform="translate(0,0)"/>
<path d="" fill="#000000" transform="translate(0,0)"/>
<path d="" fill="#000000" transform="translate(0,0)"/>
<path d="" fill="#000000" transform="translate(0,0)"/>
<path d="" fill="#000000" transform="translate(0,0)"/>
<path d="" fill="#000000" transform="translate(0,0)"/>
<path d="" fill="#000000" transform="translate(0,0)"/>
<path d="" fill="#000000" transform="translate(0,0)"/>
<path d="" fill="#000000" transform="translate(0,0)"/>
<path d="" fill="#000000" transform="translate(0,0)"/>
<path d="" fill="#000000" transform="translate(0,0)"/>
<path d="" fill="#000000" transform="translate(0,0)"/>
<path d="" fill="#000000" transform="translate(0,0)"/>
<path d="" fill="#000000" transform="translate(0,0)"/>
<path d="" fill="#000000" transform="translate(0,0)"/>
<path d="" fill="#000100" transform="translate(0,0)"/>
<path d="" fill="#000000" transform="translate(0,0)"/>
<path d="" fill="#000000" transform="translate(0,0)"/>
<path d="" fill="#000000" transform="translate(0,0)"/>
<path d="" fill="#000000" transform="translate(0,0)"/>
<path d="" fill="#000000" transform="translate(0,0)"/>
<path d="" fill="#000000" transform="translate(0,0)"/>
<path d="" fill="#000000" transform="translate(0,0)"/>
<path d="" fill="#000000" transform="translate(0,0)"/>
<path d="" fill="#000000" transform="translate(0,0)"/>
<path d="" fill="#000000" transform="translate(0,0)"/>
<path d="" fill="#000000" transform="translate(0,0)"/>
<path d="" fill="#000000" transform="translate(0,0)"/>
<path d="" fill="#000000" transform="translate(0,0)"/>
<path d="" fill="#000000" transform="translate(0,0)"/>
<path d="" fill="#000000" transform="translate(0,0)"/>
<path d="" fill="#000000" transform="translate(0,0)"/>
<path d="" fill="#000000" transform="translate(0,0)"/>
<path d="" fill="#000000" transform="translate(0,0)"/>
<path d="" fill="#000000" transform="translate(0,0)"/>
<path d="" fill="#000000" transform="translate(0,0)"/>
<path d="" fill="#000000" transform="translate(0,0)"/>
<path d="" fill="#000000" transform="translate(0,0)"/>
<path d="" fill="#000000" transform="translate(0,0)"/>
<path d="" fill="#000000" transform="translate(0,0)"/>
<path d="" fill="#000000" transform="translate(0,0)"/>
<path d="" fill="#000000" transform="translate(0,0)"/>
<path d="" fill="#000000" transform="translate(0,0)"/>
<path d="" fill="#000000" transform="translate(0,0)"/>
<path d="" fill="#000000" transform="translate(0,0)"/>
<path d="" fill="#000000" transform="translate(0,0)"/>
<path d="" fill="#000000" transform="translate(0,0)"/>
<path d="" fill="#000000" transform="translate(0,0)"/>
<path d="" fill="#000000" transform="translate(0,0)"/>
<path d="" fill="#000000" transform="translate(0,0)"/>
<path d="" fill="#000000" transform="translate(0,0)"/>
<path d="" fill="#000000" transform="translate(0,0)"/>
<path d="" fill="#000000" transform="translate(0,0)"/>
<path d="" fill="#000000" transform="translate(0,0)"/>
<path d="" fill="#000000" transform="translate(0,0)"/>
<path d="" fill="#000000" transform="translate(0,0)"/>
<path d="" fill="#000000" transform="translate(0,0)"/>
<path d="" fill="#000000" transform="translate(0,0)"/>
<path d="" fill="#000000" transform="translate(0,0)"/>
<path d="" fill="#000000" transform="translate(0,0)"/>
</svg>